# 3ds Max Wavefront OBJ Exporter v0.99 - (c)2007 guruware
# File Created: 12.12.2022 16:33:40

mtllib officina.mtl

#
# object Plane001
#

v  -0.929134 0.000000 -0.929134
v  -0.929134 0.000000 0.929134
v  0.929134 0.000000 0.929134
v  0.929134 0.000000 -0.929134
# 4 vertices

vn 0.000000 1.000000 -0.000000
# 1 vertex normals

vt 0.000000 1.000000 0.000000
vt 0.000000 0.000000 0.000000
vt 1.000000 0.000000 0.000000
vt 1.000000 1.000000 0.000000
# 4 texture coords

o Plane001
g Plane001
usemtl Material__26
s 1
f 1/1/1 2/2/1 3/3/1 4/4/1 
# 1 polygons

